<svg width="106" height="104" fill="none" xmlns="http://www.w3.org/2000/svg"><g clip-path="url(#clip0_1_431)" stroke="#000" stroke-width="2"><path d="M52.552 103c28.46 0 51.531-22.834 51.531-51S81.012 1 52.553 1C24.092 1 1.02 23.834 1.02 52s23.071 51 51.531 51z"/><path d="M14.156 46.004c3.165.044 4.75 2.303 6.577 4.917C22.724 53.77 24.98 57 29.44 57s6.716-3.23 8.71-6.079C39.997 48.281 41.59 46 44.816 46c3.227 0 4.822 2.28 6.667 4.921 1.99 2.849 4.25 6.079 8.71 6.079 4.462 0 6.716-3.23 8.71-6.079C70.749 48.281 72.343 46 75.57 46s4.823 2.28 6.668 4.921C84.227 53.77 86.486 57 90.947 57" stroke-miterlimit="10"/></g><defs><clipPath id="clip0_1_431"><path fill="#fff" transform="translate(.01)" d="M0 0h105.083v104H0z"/></clipPath></defs></svg>