<svg width="107" height="104" fill="none" xmlns="http://www.w3.org/2000/svg"><g clip-path="url(#clip0_1_412)" stroke="#000" stroke-width="2"><path d="M53.531 103c28.46 0 51.532-22.834 51.532-51S81.991 1 53.531 1C25.071 1 2 23.834 2 52s23.071 51 51.531 51z"/><path d="M27.26 74V52.509C27.26 36.764 38.797 24 53.026 24c14.23 0 25.766 12.764 25.766 28.509V74"/><path d="M35.344 74V51.386C35.344 40.679 43.26 32 53.026 32c9.766 0 17.682 8.68 17.682 19.386V74"/><path d="M43.427 73.5V51.078C43.427 44.96 47.951 40 53.531 40c5.58 0 10.105 4.96 10.105 11.078V73.5"/></g><defs><clipPath id="clip0_1_412"><path fill="#fff" transform="translate(.99)" d="M0 0h105.083v104H0z"/></clipPath></defs></svg>