<svg width="106" height="104" fill="none" xmlns="http://www.w3.org/2000/svg"><g clip-path="url(#clip0_1_406)" stroke="#000" stroke-width="2"><path d="M52.573 103c28.46 0 51.531-22.834 51.531-51S81.033 1 52.573 1C24.113 1 1.042 23.834 1.042 52s23.071 51 51.53 51z"/><path d="M40.448 67c11.719 0 21.219-9.402 21.219-21s-9.5-21-21.22-21C28.73 25 19.23 34.402 19.23 46s9.5 21 21.219 21z"/><path d="M62.677 81c11.719 0 21.219-9.402 21.219-21s-9.5-21-21.219-21c-11.719 0-21.219 9.402-21.219 21s9.5 21 21.22 21z"/></g><defs><clipPath id="clip0_1_406"><path fill="#fff" transform="translate(.031)" d="M0 0h105.083v104H0z"/></clipPath></defs></svg>