<svg width="107" height="104" fill="none" xmlns="http://www.w3.org/2000/svg"><g clip-path="url(#clip0_1_442)" stroke="#000" stroke-width="2"><path d="M53.469 103C81.929 103 105 80.166 105 52S81.929 1 53.469 1C25.009 1 1.938 23.834 1.938 52s23.07 51 51.53 51zm0-59V20m0 64V60m8.083-8h24.25m-64.666 0h24.25m13.799-5.657L70.616 35.03M36.292 69.314L47.723 58m0-12.657L36.292 34.03m34.324 34.284L59.185 57"/><path d="M53.469 55c1.674 0 3.031-1.343 3.031-3s-1.357-3-3.031-3c-1.674 0-3.031 1.343-3.031 3s1.357 3 3.03 3z"/></g><defs><clipPath id="clip0_1_442"><path fill="#fff" transform="translate(.927)" d="M0 0h105.083v104H0z"/></clipPath></defs></svg>