<svg width="107" height="104" fill="none" xmlns="http://www.w3.org/2000/svg"><g clip-path="url(#clip0_1_436)" stroke="#000" stroke-width="2"><path d="M53.51 103c28.46 0 51.532-22.834 51.532-51S81.97 1 53.51 1C25.05 1 1.98 23.834 1.98 52s23.07 51 51.53 51z"/><path d="M14.104 52.579c27.515-34.516 67.154-19.33 78.813 0-16.789 25.404-62.957 28.993-78.813 0z"/><path d="M53.005 64c6.418 0 11.62-5.149 11.62-11.5S59.423 41 53.005 41c-6.417 0-11.62 5.149-11.62 11.5S46.589 64 53.005 64z"/></g><defs><clipPath id="clip0_1_436"><path fill="#fff" transform="translate(.969)" d="M0 0h105.083v104H0z"/></clipPath></defs></svg>